HIERARCHY
ROOT hip
{
  OFFSET 0 0 0
  CHANNELS 6 Xposition Yposition Zposition Zrotation Yrotation Xrotation
  JOINT abdomen
  {
    OFFSET 0 20.6881 -0.73152
    CHANNELS 3 Zrotation Xrotation Yrotation
    JOINT chest
    {
      OFFSET 0 11.7043 -0.48768
      CHANNELS 3 Zrotation Xrotation Yrotation
      JOINT neck
      {
        OFFSET 0 22.1894 -2.19456
        CHANNELS 3 Zrotation Xrotation Yrotation
        JOINT head
        {
          OFFSET -0.24384 7.07133 1.2192
          CHANNELS 3 Zrotation Xrotation Yrotation
          JOINT leftEye
          {
            OFFSET 4.14528 8.04674 8.04672
            CHANNELS 3 Zrotation Xrotation Yrotation
            End Site
            {
              OFFSET 1 0 0
            }
          }
          JOINT rightEye
          {
            OFFSET -3.6576 8.04674 8.04672
            CHANNELS 3 Zrotation Xrotation Yrotation
            End Site
            {
              OFFSET 1 0 0
            }
          }
        }
      }
      JOINT rCollar
      {
        OFFSET -2.68224 19.2634 -4.8768
        CHANNELS 3 Zrotation Xrotation Yrotation
        JOINT rShldr
        {
          OFFSET -8.77824 -1.95073 1.46304
          CHANNELS 3 Zrotation Xrotation Yrotation
          JOINT rForeArm
          {
            OFFSET -28.1742 -1.7115 0.48768
            CHANNELS 3 Zrotation Xrotation Yrotation
            JOINT rHand
            {
              OFFSET -22.5879 0.773209 7.07136
              CHANNELS 3 Zrotation Xrotation Yrotation
              JOINT rThumb1
              {
                OFFSET -1.2192 -0.487915 3.41376
                CHANNELS 3 Zrotation Xrotation Yrotation
                JOINT rThumb2
                {
                  OFFSET -3.37035 -0.52449 3.41376
                  CHANNELS 3 Zrotation Xrotation Yrotation
                  End Site
                  {
                    OFFSET -1.78271 -1.18214 1.43049
                  }
                }
              }
              JOINT rIndex1
              {
                OFFSET -7.75947 0.938293 5.60832
                CHANNELS 3 Zrotation Xrotation Yrotation
                JOINT rIndex2
                {
                  OFFSET -2.54057 -0.884171 1.56538
                  CHANNELS 3 Zrotation Xrotation Yrotation
                  End Site
                  {
                    OFFSET -1.62519 -0.234802 1.16502
                  }
                }
              }
              JOINT rMid1
              {
                OFFSET -8.24714 1.18213 3.41376
                CHANNELS 3 Zrotation Xrotation Yrotation
                JOINT rMid2
                {
                  OFFSET -3.10165 -0.590103 1.0647
                  CHANNELS 3 Zrotation Xrotation Yrotation
                  End Site
                  {
                    OFFSET -2.48547 -0.328903 0.83742
                  }
                }
              }
              JOINT rRing1
              {
                OFFSET -8.82822 0.546677 1.51678
                CHANNELS 3 Zrotation Xrotation Yrotation
                JOINT rRing2
                {
                  OFFSET -2.60934 -0.819778 -0.0198488
                  CHANNELS 3 Zrotation Xrotation Yrotation
                  End Site
                  {
                    OFFSET -2.33842 -0.294052 0.168128
                  }
                }
              }
              JOINT rPinky1
              {
                OFFSET -8.27202 -0.0477905 -0.4584
                CHANNELS 3 Zrotation Xrotation Yrotation
                JOINT rPinky2
                {
                  OFFSET -1.82734 -0.647385 -0.700984
                  CHANNELS 3 Zrotation Xrotation Yrotation
                  End Site
                  {
                    OFFSET -1.69225 -0.51767 -0.607171
                  }
                }
              }
            }
          }
        }
      }
      JOINT lCollar
      {
        OFFSET 2.68224 19.2634 -4.8768
        CHANNELS 3 Zrotation Xrotation Yrotation
        JOINT lShldr
        {
          OFFSET 8.77824 -1.95073 1.46304
          CHANNELS 3 Zrotation Xrotation Yrotation
          JOINT lForeArm
          {
            OFFSET 28.1742 -1.7115 0.48768
            CHANNELS 3 Zrotation Xrotation Yrotation
            JOINT lHand
            {
              OFFSET 22.5879 0.773209 7.07136
              CHANNELS 3 Zrotation Xrotation Yrotation
              JOINT lThumb1
              {
                OFFSET 1.2192 -0.487915 3.41376
                CHANNELS 3 Zrotation Xrotation Yrotation
                JOINT lThumb2
                {
                  OFFSET 3.37035 -0.52449 3.41376
                  CHANNELS 3 Zrotation Xrotation Yrotation
                  End Site
                  {
                    OFFSET 1.78271 -1.18214 1.43049
                  }
                }
              }
              JOINT lIndex1
              {
                OFFSET 7.75947 0.938293 5.60832
                CHANNELS 3 Zrotation Xrotation Yrotation
                JOINT lIndex2
                {
                  OFFSET 2.54057 -0.884171 1.56538
                  CHANNELS 3 Zrotation Xrotation Yrotation
                  End Site
                  {
                    OFFSET 1.62519 -0.234802 1.16502
                  }
                }
              }
              JOINT lMid1
              {
                OFFSET 8.24714 1.18213 3.41376
                CHANNELS 3 Zrotation Xrotation Yrotation
                JOINT lMid2
                {
                  OFFSET 3.10165 -0.590103 1.0647
                  CHANNELS 3 Zrotation Xrotation Yrotation
                  End Site
                  {
                    OFFSET 2.48547 -0.328903 0.83742
                  }
                }
              }
              JOINT lRing1
              {
                OFFSET 8.82822 0.546677 1.51678
                CHANNELS 3 Zrotation Xrotation Yrotation
                JOINT lRing2
                {
                  OFFSET 2.60934 -0.819778 -0.0198488
                  CHANNELS 3 Zrotation Xrotation Yrotation
                  End Site
                  {
                    OFFSET 2.33842 -0.294052 0.168128
                  }
                }
              }
              JOINT lPinky1
              {
                OFFSET 8.27202 -0.0477905 -0.4584
                CHANNELS 3 Zrotation Xrotation Yrotation
                JOINT lPinky2
                {
                  OFFSET 1.82734 -0.647385 -0.700984
                  CHANNELS 3 Zrotation Xrotation Yrotation
                  End Site
                  {
                    OFFSET 1.69225 -0.51767 -0.607171
                  }
                }
              }
            }
          }
        }
      }
    }
  }
  JOINT rButtock
  {
    OFFSET -8.77824 4.35084 1.2192
    CHANNELS 3 Zrotation Xrotation Yrotation
    JOINT rThigh
    {
      OFFSET 0 -1.70687 -2.19456
      CHANNELS 3 Zrotation Xrotation Yrotation
      JOINT rShin
      {
        OFFSET 0 -36.8199 0.73152
        CHANNELS 3 Zrotation Xrotation Yrotation
        JOINT rFoot
        {
          OFFSET 0.73152 -45.1104 -5.12064
          CHANNELS 3 Zrotation Xrotation Yrotation
          End Site
          {
            OFFSET -1.1221 -3.69964 12.103
          }
        }
      }
    }
  }
  JOINT lButtock
  {
    OFFSET 8.77824 4.35084 1.2192
    CHANNELS 3 Zrotation Xrotation Yrotation
    JOINT lThigh
    {
      OFFSET 0 -1.70687 -2.19456
      CHANNELS 3 Zrotation Xrotation Yrotation
      JOINT lShin
      {
        OFFSET 0 -36.8199 0.73152
        CHANNELS 3 Zrotation Xrotation Yrotation
        JOINT lFoot
        {
          OFFSET -0.73152 -45.1104 -5.12064
          CHANNELS 3 Zrotation Xrotation Yrotation
          End Site
          {
            OFFSET 1.1221 -3.69964 12.103
          }
        }
      }
    }
  }
}
MOTION
Frames:	4
Frame Time:	0.03333
-47.6778 57.2288 -37.3711 142.661909 -73.712144 -140.307204 -21.411746 9.064951 63.0742 -2.064328 -10.221762 -65.289825 -13.666778 25.653191 -67.128823 37.73439 -2.654556 37.010135 -0.000305 -0.0 0.003606 -0.000994 0.0 -0.000561 -156.156888 -8.004813 162.767653 -37.469749 10.475259 6.483258 -121.071791 -6.696477 -136.432471 10.949595 -23.983206 5.314614 -6.227128 6.011328 1.274764 -7.408029 8.294765 9.968068 12.683892 -22.653222 -5.229377 9.9184 6.09342 -0.238028 -164.825051 -19.88761 144.783677 -1.196138 11.959277 2.414782 -0.020128 -1.71232 -0.536334 10.426687 0.580009 0.001117 -22.844053 -35.88028 -21.958325 -148.035777 16.238394 -144.468176 -4.272579 -47.089945 9.138634 96.251697 -22.7919 144.851119 6.216772 -2.557547 70.446476 -148.782858 -46.773831 -132.424251 -171.289381 -25.231915 -87.314019 87.014844 18.168764 -31.145609 149.088639 -12.981499 -120.324763 -30.582814 -38.257853 8.103473 -1.442473 -4.287601 0.760445 -20.058452 -46.600629 -0.736476 145.115385 -0.327832 179.024961 155.644257 67.203439 -171.37787 138.822082 -5.34945 136.013093 132.839763 -20.57457 130.103395 -179.991164 75.750543 -0.006213 152.731356 1.377615 -91.101853 -73.662633 -13.030009 61.44539 52.065375 18.454481 16.128819 -0.000799 0.000793 0.000781 6.497025 13.188516 -5.911562 0.933622 36.025212 90.291939 -94.03238 33.126899 -12.844098
-47.703 57.199999999999996 -37.3563 143.153062 -73.643829 -140.681804 -21.447434 8.748461 69.445064 -2.918404 -9.888544 -71.659468 5.795776 20.696007 58.330003 -31.167644 -8.499719 -94.562418 0.004367 -0.0 -0.00136 -0.00131 0.0 -0.000641 -0.990727 5.556572 1.285541 -119.870571 -10.286641 172.154356 -176.153867 7.227982 -127.333841 -8.427864 33.150714 2.214969 2.940745 -2.922883 -0.377455 9.488966 -15.491985 -9.697871 -163.924354 -39.554921 122.534569 -49.204612 55.729938 36.472633 -166.469642 -25.154788 145.141955 5.313055 -6.411775 -0.381023 0.002977 2.286958 0.716286 10.125568 -58.881563 -8.195858 -159.856492 65.640989 -151.098085 -83.231158 -52.811081 -81.85055 158.397618 -29.095738 -166.743505 61.874178 -28.13409 30.715657 -178.942069 -14.071631 144.674418 10.41961 43.074071 -3.97209 162.901373 -0.584914 -89.354534 -141.380588 -45.569183 -91.388768 -87.156407 -75.357117 -38.596137 8.144592 33.956681 -6.587561 132.466795 44.813648 -121.527652 -39.032673 -67.322088 -14.024291 145.075155 -2.772536 178.254942 155.827935 8.22356 -179.779125 -9.552214 30.87184 -8.307609 165.903804 68.951783 148.749792 179.994433 75.749607 0.002476 150.449853 1.439473 85.427667 78.911518 5.517426 12.057938 -152.842335 -16.351612 106.028262 -0.002174 2e-05 -0.002342 5.868978 13.139764 24.84812 21.66924 30.069969 56.905573 -96.012309 35.803133 -11.339623
-47.7408 57.1779 -37.302 143.847389 -73.563166 -141.321616 -16.720397 8.398846 -75.41476 6.750082 1.919091 72.807358 8.56751 30.591799 116.301659 -33.605199 27.225696 -143.208195 0.003993 -0.0 -0.001669 -0.002164 0.0 -0.001341 4.212497 -53.203811 -10.524963 23.095038 -16.464683 -32.900149 -68.618717 64.549047 121.061807 -0.595024 9.777696 1.100593 22.75944 -22.100058 0.99047 -133.546238 -15.498157 119.332203 159.818676 -69.915819 102.538541 33.211461 -31.527332 -7.2117 -153.139249 14.060302 138.734881 -160.541668 3.022167 141.984386 0.003891 1.073375 0.337095 -153.551053 -67.580646 -177.274238 10.709557 35.347451 9.186446 -149.984998 18.349345 -144.957133 158.407766 -62.595211 -174.301707 151.263166 -29.981006 117.252422 24.060272 64.739638 45.330878 -148.188015 -47.443588 -131.879113 18.887966 16.928648 -5.631718 20.096709 13.796463 -25.973305 145.326054 -6.244911 -118.671883 172.038627 -33.691001 -117.730043 -30.234393 -67.872641 -5.855632 10.474223 31.419922 -8.308802 0.819502 -15.680279 5.077662 151.313978 -68.727869 176.219679 160.415945 67.238941 151.116074 -8.215271 19.623435 -3.348289 5.7e-05 -0.000541 0.00011 -62.175466 -58.761306 -146.160147 -83.869121 -0.670199 -123.997091 16.18499 30.016628 -135.966568 5.7e-05 -0.000541 0.00011 6.107503 11.060727 167.736276 5.715885 -40.381156 -56.977077 -28.258439 -9.830796 -80.800184
-47.768100000000004 57.1642 -37.243500000000004 143.930063 -73.433912 -141.406219 -18.09371 5.563791 -156.280342 -3.191159 4.954989 153.899105 -7.97732 36.406974 -139.23294 30.56455 37.484451 97.006227 0.001349 0.0 0.000602 0.000618 -0.0 -0.003608 3.08128 -24.571609 -4.843156 54.849413 27.100483 -14.722115 -22.232658 7.270683 54.121552 0.137502 7.425791 1.17661 -3.093507 3.024631 0.554925 -101.964464 9.446441 93.344671 -96.940318 39.158486 81.750306 178.520857 -37.197654 111.850131 123.809968 -80.869251 93.188874 -159.435486 6.959237 141.490984 -0.019453 -1.570116 -0.494903 7.490901 27.077479 4.127065 2.63433 7.314903 2.407034 -10.257067 -26.123803 -11.412333 153.354289 8.571027 -159.041565 57.435508 6.66324 -9.559275 91.04871 -37.938071 115.56856 -25.514387 -44.82849 -17.258079 20.784885 18.370866 -6.459292 129.759724 -30.07476 -105.331371 9.847814 14.125427 -6.347022 165.769501 -17.258826 -110.019369 -45.809335 -75.873011 -19.026689 -6.610087 -10.869084 0.957518 0.007167 3.5649 -1.11839 -9.156508 10.617598 -1.353402 139.100896 -4.683273 136.278118 -162.102114 82.469341 120.543918 -0.001207 0.000357 -0.000463 -62.389102 -58.805498 -148.008342 -81.161897 -12.875605 -11.014794 168.850855 63.656274 -86.462924 0.030826 0.000355 0.021949 5.937944 11.135246 166.673239 4.527922 -36.469748 -93.076313 47.877421 -52.44919 -22.331657
